<svg xmlns="http://www.w3.org/2000/svg" viewBox="0 0 97.94 77.88"><defs><style>.cls-2{fill:#fff}.cls-3{fill:#d1e2f4}.cls-4{fill:#3b3c42}.cls-6{fill:#d0eaea}</style></defs><g id="Layer_2" data-name="Layer 2"><g id="Layer_1-2" data-name="Layer 1"><path d="M15.92 74.66s1.94 4 5.75 3.1l35.9-8.27h30.81s4.84-.37 3.73-7.35c0 0 5.69.19 5.83-5L92.3 31.53v-23a4.71 4.71 0 0 0-4.77-4H71.72L28.65 42.81 17.11 67.08Z" style="fill:#ccd8ec"/><path d="m88.86 60.16-71.93 14a5.53 5.53 0 0 1-6.47-4.36L1.6 24.15a5.07 5.07 0 0 1 .76-3.76A5 5 0 0 1 3.75 19a4.85 4.85 0 0 1 1.81-.74l72.15-14a6.12 6.12 0 0 1 7.17 4.82l8.61 44.21a5.8 5.8 0 0 1 0 2.27A5.87 5.87 0 0 1 91 59.31a5.8 5.8 0 0 1-2.14.85" class="cls-2"/><path d="M77.73 3.17 19.86 14.42 6.36 17a5.4 5.4 0 0 0-2 .82 5.6 5.6 0 0 0-1.54 1.52A5.56 5.56 0 0 0 2 23.55l.4 2.08 82.29-16-.41-2.11a5.56 5.56 0 0 0-6.51-4.39Z" class="cls-3"/><path d="M77.61 2.55 19.69 13.78 6.24 16.4a6.2 6.2 0 0 0-2.24.92 6.2 6.2 0 0 0-2.66 3.93 6.2 6.2 0 0 0 0 2.42l.41 2.09 8.61 44.06a6.22 6.22 0 0 0 7.27 4.9l13.46-2.61L89 60.86a6.1 6.1 0 0 0 2.24-.86 6.14 6.14 0 0 0 2.65-4 6.2 6.2 0 0 0 0-2.43l-3-15.33v-.34L85.33 9.55l-.4-2.11A6.2 6.2 0 0 0 80 2.54a6.4 6.4 0 0 0-2.39.01m12.61 35.83 3 15.34a5.7 5.7 0 0 1 0 2.17 5.6 5.6 0 0 1-2.4 3.53 5.7 5.7 0 0 1-2 .81L30.89 71.48 17.43 74.1a5.58 5.58 0 0 1-6.51-4.4L2.31 25.64l-.4-2.09a5.56 5.56 0 0 1 .85-4.17A5.57 5.57 0 0 1 6.31 17l13.55-2.62L77.73 3.17a5.56 5.56 0 0 1 6.51 4.39l.41 2.11 5.52 28.39Z" class="cls-4"/><path d="M16.42 75.13A6.54 6.54 0 0 1 10 70L1 23.72a6.52 6.52 0 0 1 5.16-7.63l71.4-13.78a6.56 6.56 0 0 1 7.65 5.17l9 46.13A6.53 6.53 0 0 1 89 61.26L17.62 75.13a8 8 0 0 1-1.2 0m73.3-14.83a8 8 0 0 1-.79.2 7 7 0 0 0 .74-.17ZM78.85 3.45a4.8 4.8 0 0 0-1 .1L6.46 17.33a5.2 5.2 0 0 0-3.38 2.18 4.9 4.9 0 0 0-.8 1.89 5.2 5.2 0 0 0 0 2.05l9 46.18A5.28 5.28 0 0 0 13.47 73a5.27 5.27 0 0 0 3.91.79L88.77 60a5.2 5.2 0 0 0 4.15-4.09 5.2 5.2 0 0 0 0-2l-9-46.22a5.28 5.28 0 0 0-1.82-3 5.2 5.2 0 0 0-3.34-1.29ZM12.66 73.2a6.4 6.4 0 0 0 .88.59l-.45-.28Zm77.83-34.89 3 15.35-8.94-46.15ZM2 20.14a5.75 5.75 0 0 0-.38 3.45A5.67 5.67 0 0 1 2 20.17Zm3.44-3.22a6 6 0 0 0-2.17 1.36A6.1 6.1 0 0 1 5.44 17ZM81.62 3.48a3.4 3.4 0 0 1 .45.28l.43.31a6 6 0 0 0-.88-.59" class="cls-4"/><path d="M84.14 67.62H8.84V10.67h75a6 6 0 0 1 6 6V62a5.6 5.6 0 0 1-.43 2.17A5.8 5.8 0 0 1 88.16 66a5.7 5.7 0 0 1-4 1.66Z" class="cls-2"/><path d="M5.67 15.13v47a5.56 5.56 0 0 0 1.64 3.93 5.7 5.7 0 0 0 1.81 1.2 5.5 5.5 0 0 0 2.13.42H25v-58H11.25a5.55 5.55 0 0 0-5.58 5.46Z" style="fill:#f0f4fb"/><path d="M5.67 9.58V44H25V9.58Z" class="cls-6"/><path d="M83.93 9.67H11.25a5.55 5.55 0 0 0-5.56 5.54v2.14H89.5v-2.22a5.58 5.58 0 0 0-1.67-3.87 5.52 5.52 0 0 0-3.9-1.59" class="cls-3"/><path d="M83.93 8.92H11.25a6.2 6.2 0 0 0-6.2 6.21v47a6.2 6.2 0 0 0 6.2 6.2H84a6.21 6.21 0 0 0 6.2-6.2v-47a6.2 6.2 0 0 0-.47-2.38 6.4 6.4 0 0 0-1.35-2 6.2 6.2 0 0 0-4.4-1.82Zm5.57 37.59v15.63a5.58 5.58 0 0 1-5.57 5.55H11.25a5.57 5.57 0 0 1-5.56-5.55v-47a5.55 5.55 0 0 1 5.56-5.46H84a5.55 5.55 0 0 1 5.56 5.54v31.3Z" class="cls-4"/><path d="M83.93 68.65H11.25a6.5 6.5 0 0 1-2.5-.49 6.6 6.6 0 0 1-2.12-1.41 6.4 6.4 0 0 1-1.42-2.11 6.7 6.7 0 0 1-.51-2.5v-47a6.54 6.54 0 0 1 1.92-4.64 6.7 6.7 0 0 1 2.13-1.41 6.3 6.3 0 0 1 2.5-.49H84a6.3 6.3 0 0 1 2.5.49 6.7 6.7 0 0 1 2.13 1.41 6.47 6.47 0 0 1 1.91 4.63v47a6.5 6.5 0 0 1-.5 2.5 6.6 6.6 0 0 1-1.43 2.12 6.7 6.7 0 0 1-2.12 1.41 6.55 6.55 0 0 1-2.56.49M11.25 9.89a5.16 5.16 0 0 0-5.17 5.17v47.08a5.17 5.17 0 0 0 5.17 5.17H84a5.19 5.19 0 0 0 5.17-5.17v-47A5.17 5.17 0 0 0 84 10Zm0-.64H84a5.91 5.91 0 0 1 5.51 3.86 5.87 5.87 0 0 0-2.15-2.81 6 6 0 0 0-3.38-1.07Z" class="cls-4"/><path d="M16 28.84A13.44 13.44 0 1 0 2.57 15.4 13.44 13.44 0 0 0 16 28.84" style="fill:#b5c5de"/><path d="M15 38.81a4.51 4.51 0 1 0-4.51-4.51A4.51 4.51 0 0 0 15 38.81" class="cls-2"/><path d="M22.14 50.15H9.84a.75.75 0 0 1-.53-.22.73.73 0 0 1-.21-.52.9.9 0 0 1 .05-.28 1 1 0 0 1 .16-.24.8.8 0 0 1 .24-.16 1 1 0 0 1 .29 0h12.3a1 1 0 0 1 .28 0 .74.74 0 0 1 .4.4.7.7 0 0 1 .06.28.75.75 0 0 1-.74.74M18.61 54H9.84a.72.72 0 0 1-.74-.74 1 1 0 0 1 .05-.26.8.8 0 0 1 .16-.23.8.8 0 0 1 .24-.16.7.7 0 0 1 .29 0h8.77a.7.7 0 0 1 .28 0 .8.8 0 0 1 .24.16.6.6 0 0 1 .16.23.7.7 0 0 1 .06.28.75.75 0 0 1-.22.53.73.73 0 0 1-.52.19" class="cls-6"/><path d="M27.18 17.17A13.44 13.44 0 1 0 11 27.16a13.45 13.45 0 0 0 16.18-9.99" style="fill:#68bc9f"/><path d="M14.11 28.18a14.08 14.08 0 1 1 10-4.13 14.07 14.07 0 0 1-10 4.13m0-26.87a12.8 12.8 0 1 0 9 3.75 12.8 12.8 0 0 0-9-3.75" class="cls-4"/><path d="M12.35 20a1.1 1.1 0 0 1-.44-.09 1.2 1.2 0 0 1-.37-.25L6.89 15a1.17 1.17 0 0 1-.37-.83 1.15 1.15 0 0 1 .33-.84 1.13 1.13 0 0 1 .83-.33 1.22 1.22 0 0 1 .85.32l3.77 3.77 7.32-8.37a1.1 1.1 0 0 1 .38-.33 1.1 1.1 0 0 1 .9-.07 1.1 1.1 0 0 1 .4.23 1 1 0 0 1 .28.37 1.15 1.15 0 0 1 .11.45 1 1 0 0 1-.08.46 1.2 1.2 0 0 1-.25.39l-8.13 9.3a1.1 1.1 0 0 1-.38.28 1 1 0 0 1-.46.11Z" class="cls-2"/><path d="M12.4 20.22a1.5 1.5 0 0 1-1.05-.43L6.7 15.14a1.49 1.49 0 0 1-.32-1.61 1.4 1.4 0 0 1 .32-.47 1.5 1.5 0 0 1 2.1 0l3.45 3.44 7.1-8.09a1.3 1.3 0 0 1 .45-.36A1.42 1.42 0 0 1 20.94 8a1.4 1.4 0 0 1 .49.3 1.6 1.6 0 0 1 .36.45 1.42 1.42 0 0 1 .08 1.14 1.5 1.5 0 0 1-.3.49l-8.13 9.31A1.7 1.7 0 0 1 13 20a1.5 1.5 0 0 1-.59.14Zm-4.7-6.89a.85.85 0 0 0-.83.83.87.87 0 0 0 .24.6l4.66 4.65a.83.83 0 0 0 .58.25.74.74 0 0 0 .33-.09.75.75 0 0 0 .26-.21L21.12 10a.9.9 0 0 0 .17-.29.9.9 0 0 0 0-.33.9.9 0 0 0-.28-.57.9.9 0 0 0-.29-.17.9.9 0 0 0-.33 0 .9.9 0 0 0-.57.28l-7.5 8.58-4-4a.88.88 0 0 0-.6-.23Z" class="cls-2"/><path d="M58.5 23.72a18.66 18.66 0 1 0 7.14 1.42 18.6 18.6 0 0 0-7.14-1.42m0 34.3a15.69 15.69 0 1 1 11.08-4.57A15.7 15.7 0 0 1 58.5 58Z" class="cls-4"/><path d="M58.5 45.65A17.43 17.43 0 0 0 44.72 53l2.34 1.73a14.56 14.56 0 0 1 11.46-6.24 14.6 14.6 0 0 1 6.48 1.8 14.44 14.44 0 0 1 5 4.48L72.34 53a17.5 17.5 0 0 0-13.84-7.35" class="cls-4"/><path d="M58.5 30.34a7.68 7.68 0 0 0-7.16 4.73 7.72 7.72 0 0 0 5.59 10.55 7.72 7.72 0 1 0 1.57-15.28m0 12.47a4.77 4.77 0 1 1 3.92-7.42 4.7 4.7 0 0 1 .8 2.67 4.6 4.6 0 0 1-.33 1.83 4.8 4.8 0 0 1-1 1.57 5 5 0 0 1-1.54 1 4.8 4.8 0 0 1-1.83.37Z" class="cls-4"/></g></g></svg>