<svg enable-background="new 0 0 512 512" height="512" viewBox="0 0 512 512" width="512" xmlns="http://www.w3.org/2000/svg" xmlns:xlink="http://www.w3.org/1999/xlink"><linearGradient id="lg1"><stop offset="0" stop-color="#fe652b"/><stop offset="1" stop-color="#ffff49"/></linearGradient><linearGradient id="SVGID_1_" gradientUnits="userSpaceOnUse" x1="256.001" x2="256.001" xlink:href="#lg1" y1="490.551" y2="198.286"/><linearGradient id="SVGID_2_" gradientUnits="userSpaceOnUse" x1="256.001" x2="256.001" xlink:href="#lg1" y1="481.195" y2="278.368"/><linearGradient id="SVGID_3_" gradientUnits="userSpaceOnUse" x1="37.553" x2="474.448" y1="196.16" y2="196.16"><stop offset="0" stop-color="#f80314"/><stop offset="1" stop-color="#fed59c"/></linearGradient><linearGradient id="lg2"><stop offset="0" stop-color="#e2dec3"/><stop offset=".9944" stop-color="#fff"/></linearGradient><linearGradient id="SVGID_4_" gradientUnits="userSpaceOnUse" x1="256.001" x2="256.001" xlink:href="#lg2" y1="370.844" y2="81.155"/><linearGradient id="SVGID_5_" gradientUnits="userSpaceOnUse" x1="388.534" x2="388.534" xlink:href="#lg2" y1="143.665" y2="81.155"/><g id="_x34_4_Gmail"><g><path d="m474.457 198.286v259.722c0 17.973-14.57 32.543-32.543 32.543h-371.826c-17.973 0-32.543-14.57-32.543-32.543v-259.722z" fill="url(#SVGID_1_)"/><path d="m47.235 481.195 208.847-202.827 208.685 202.827" fill="url(#SVGID_2_)"/><path d="m474.448 198.23-54.836 46.212-139.299 117.49c-14.091 11.885-34.696 11.883-48.784-.005l-139.14-117.404-54.836-46.293 54.836-46.212 132.207-111.542 15.741-13.26c9.095-7.662 22.388-7.653 31.473.02l15.676 13.239 132.126 111.461z" fill="url(#SVGID_3_)"/><path d="m419.613 143.313v101.129l-139.299 117.49c-14.091 11.885-34.696 11.883-48.784-.005l-139.141-117.404v-146.648c0-8.975 7.267-16.256 16.242-16.272l248.824-.448z" fill="url(#SVGID_4_)"/><path d="m419.613 143.313-45.761.352c-9.035.069-16.397-7.236-16.397-16.271v-46.239z" fill="url(#SVGID_5_)"/><g fill="#07028f"><path d="m482.023 458.008v-259.721c0-.016-.009-.029-.009-.044 0-.002.001-.005.001-.007-.253-.757-.291-3.765-2.686-5.785l-52.151-44.008v-5.128c0-1.488-.796-3.929-2.217-5.349l-62.159-62.159c-1.371-1.371-3.745-2.217-5.349-2.217-.004 0-.007 0-.015 0l-18.925.034-61.819-52.167c-11.943-10.081-29.288-10.104-41.231-.026l-62.24 52.49-64.607.116c-13.122.026-23.794 10.721-23.794 23.839v50.597l-52.144 43.974c-1.831 1.543-2.741 4.172-2.7 5.841v259.721c0 22.24 18.138 40.108 40.108 40.108h371.829c21.778-.001 40.108-17.699 40.108-40.109zm-54.844-289.768 35.538 29.988-35.538 29.967zm-62.159-68.818c.771.771 38.882 38.883 36.465 36.466l-27.692.211c-4.352.188-8.774-3.558-8.774-8.704v-27.973zm-119.81-66.421c6.299-5.301 15.431-5.297 21.722.018l48.169 40.646-118.36.212zm-145.256 64.874c0-4.791 3.901-8.696 8.692-8.707l241.243-.432v38.659c0 13.242 10.735 23.835 23.831 23.835h.192l38.135-.292v89.988l-136.611 115.226c-11.315 9.535-27.725 9.527-39.026-.007l-136.456-115.154zm-15.132 70.392v59.956l-35.535-29.987zm-39.712 289.741v-243.502c1.716 1.448-9.853-8.315 142.254 120.052l-139.192 135.181c-1.89-3.515-3.062-7.469-3.062-11.731zm396.805 24.977h-371.829c-3.989 0-7.709-1.027-11.057-2.697l139.955-135.925 27.666 23.344c16.945 14.303 41.566 14.321 58.538.011l27.828-23.465 139.96 136.033c-3.349 1.671-7.071 2.699-11.061 2.699zm24.977-24.977c0 4.261-1.172 8.215-3.061 11.728l-139.19-135.285 142.251-119.949z"/><path d="m288.963 249.21-6.492-11.106c-7.853 5.686-18.585 8.652-27.406 8.652-27.859 0-49.049-20.207-49.049-47.317 0-27.628 22.814-49.912 50.921-49.912 30.029 0 49.19 21.181 49.19 49.337 0 27.765-18.32 28.539-18.32 16.735v-49.049h-16.876v8.077c-1.925-3.451-10.461-9.662-20.627-9.662-18.436 0-30.295 15.239-30.295 34.039 0 19.658 15.063 33.47 32.02 33.47 9.123 0 17.365-3.864 22.793-11.828.275.757.159 6.772 6.064 10.601 13.77 8.975 38.659-.684 38.659-32.818 0-34.481-25.654-61.452-62.608-61.452-35.614 0-64.481 26.949-64.481 62.462 0 35.148 27.76 60.155 62.608 60.155 10.797 0 25.166-3.892 33.899-10.384zm-35.055-32.173c-9.711 0-15.438-9.114-15.438-18.748 0-9.251 5.754-17.604 15.15-17.604 10.12 0 16.154 8.026 16.154 17.745 0 9.893-5.632 18.607-15.866 18.607z"/></g></g></g></svg>