<svg width="469" height="338" viewBox="0 0 469 338" fill="none" xmlns="http://www.w3.org/2000/svg">
<path d="M309.292 226.34L207.168 40.3789L190.328 40.5599L107.035 202.619L233.423 267.624H233.966L309.292 226.34Z" fill="#008C9D"/>
<path d="M215.5 40.198L315.814 222.9L318.892 228.513L316.719 54.322L287.204 39.293L215.5 40.198Z" fill="#008C9D"/>
<path d="M324.145 58.123L326.861 266.174V272.693L413.594 104.296L324.145 58.123Z" fill="#008C9D"/>
<path d="M319.074 229.418L312.918 232.858L250.086 267.262L319.436 266.357L319.074 229.418Z" fill="#008C9D"/>
<path d="M319.615 273.6L247.367 274.686L309.475 306.736L326.496 273.6H319.615Z" fill="#008C9D"/>
<path d="M211.517 32.955L273.263 32.05L211.155 0L202.645 16.659L206.085 23.177L211.517 32.955Z" fill="#008C9D"/>
<path d="M203.186 32.9552L199.565 26.6172L196.668 28.2472L194.133 33.1362L203.186 32.9552Z" fill="#008C9D"/>
<path d="M235.778 92.3477L151.941 150.653L233.061 267.444L233.424 267.625H233.967L309.293 226.341L235.778 92.3477Z" fill="#20D1CC"/>
<path d="M241.938 88.1818L315.814 222.9L318.892 228.513L316.719 54.6838L301.509 46.7168L241.938 88.1818Z" fill="#20D1CC"/>
<path d="M319.074 229.418L312.918 232.858L250.086 267.262L319.436 266.357L319.074 229.418Z" fill="#20D1CC"/>
<path d="M326.861 266.176V272.694L406.532 118.059L388.244 91.6223L324.145 58.4863L326.861 266.176Z" fill="#20D1CC"/>
<path d="M323.783 38.7496L323.964 50.1566L379.191 78.5856L338.993 20.6426L323.602 31.3256H323.783V38.7496Z" fill="#20D1CC"/>
<path d="M316.539 46.1747L316.358 38.9316H312.736L308.391 42.0096L316.539 46.1747Z" fill="#20D1CC"/>
<path d="M306.036 313.256L241.938 280.301L281.772 337.519L312.193 316.515L306.036 313.256Z" fill="#20D1CC"/>
<path d="M468.817 207.689L411.236 124.939L315.992 310.176L312.914 315.97L468.817 207.689Z" fill="#20D1CC"/>
<path d="M326.497 273.6H319.616L247.188 274.686L309.295 306.736L326.497 273.6Z" fill="#20D1CC"/>
<path d="M309.293 226.341L235.778 92.3477L151.941 150.653L233.061 267.444L233.424 267.625H233.967L309.293 226.341Z" fill="#03ABA3"/>
<path d="M326.861 266.174V272.693L406.532 118.058L387.701 90.8971L324.145 58.123L326.861 266.174Z" fill="#03ABA3"/>
<path d="M319.615 273.6L247.367 274.686L309.475 306.736L326.495 273.6H319.615Z" fill="#03ABA3"/>
<path d="M241.938 88.1818L315.814 222.9L318.892 228.513L316.719 54.3218L301.69 46.7168L241.938 88.1818Z" fill="#03ABA3"/>
<path d="M319.074 229.418L312.918 232.858L250.086 267.262L319.436 266.357L319.074 229.418Z" fill="#03ABA3"/>
<path d="M207.171 40.1973L174.035 40.7403L89.293 87.2763L91.647 269.615L233.969 267.623L309.295 226.339L207.171 40.1973Z" fill="#0282C9"/>
<path d="M315.814 222.898L318.892 228.33L316.538 38.748L215.5 40.1971L315.814 222.898Z" fill="#0282C9"/>
<path d="M158.279 40.9219L88.5664 41.8269L89.1104 78.9469L158.279 40.9219Z" fill="#0282C9"/>
<path d="M312.918 232.859L250.086 267.444L319.436 266.357L318.893 229.6L312.918 232.859Z" fill="#0282C9"/>
<path d="M315.995 222.9L319.073 228.513L316.719 54.322L287.385 39.293L215.5 40.198L315.995 222.9Z" fill="#016BB1"/>
<path d="M312.915 232.858L249.902 267.443L319.434 266.357L319.072 229.418L312.915 232.858Z" fill="#016BB1"/>
<path d="M207.168 40.1973L190.328 40.5593L107.035 202.619L233.423 267.623H233.966L309.292 226.339L207.168 40.1973Z" fill="#016BB1"/>
<path d="M199.498 26.666L0 136.236L109.57 335.734L309.068 226.164L199.498 26.666Z" fill="#01569A"/>
<path d="M89.2891 87.2759L91.6431 269.616L233.965 267.624L309.291 226.34L207.167 40.3789L174.031 40.7409L89.2891 87.2759Z" fill="#06429E"/>
<path d="M231.975 134.174C220.024 112.626 192.863 104.84 171.497 116.791C160.632 122.766 153.39 132.725 150.13 143.771C139.085 140.511 126.772 141.417 115.908 147.573C105.043 153.549 97.8012 163.508 94.5412 174.553C83.4962 171.294 71.1832 172.38 60.3192 178.356C54.1622 181.796 51.8082 189.582 55.2492 195.738C58.6892 201.895 66.4752 204.249 72.6322 200.808C81.6852 195.738 93.0931 198.998 98.1631 208.051L119.71 246.982C123.151 253.138 130.937 255.492 137.093 252.052C137.093 252.052 137.093 252.052 137.274 252.052C137.636 251.871 137.817 251.69 138.18 251.508L138.361 251.327C138.723 251.146 138.904 250.965 139.266 250.603C139.266 250.603 139.266 250.603 139.447 250.422C139.809 250.241 139.99 249.879 140.171 249.698C140.534 249.336 140.715 249.155 140.896 248.792C141.077 248.43 141.439 248.068 141.62 247.887C141.801 247.525 141.982 247.163 142.163 246.801C143.974 243.179 144.155 238.652 141.982 234.669L120.253 195.557C115.365 186.504 118.624 175.096 127.677 170.026C136.731 164.956 148.32 168.215 153.39 177.45L175.118 216.562C178.559 222.718 186.345 225.072 192.501 221.632C193.588 220.907 194.674 220.183 195.579 219.278C199.382 215.294 200.287 209.138 197.571 204.249L175.843 165.137C170.772 156.084 174.032 144.495 183.266 139.425C192.32 134.355 203.909 137.614 208.979 146.849L230.707 185.961C233.423 191.031 239.218 193.384 244.469 192.298C245.736 192.117 247.004 191.574 248.09 191.031C254.247 187.59 256.601 179.804 253.16 173.648L231.975 134.174Z" fill="white"/>
</svg>
