<svg xmlns="http://www.w3.org/2000/svg" width="78" height="41" fill="none"><g clip-path="url(#a)"><mask id="b" width="78" height="29" x="0" y="0" maskUnits="userSpaceOnUse" style="mask-type:luminance"><path fill="#fff" d="M78 0H0v28.353h78z"/></mask><g mask="url(#b)"><path fill="#7351FD" d="M78 0H0v28.353h78z"/><path fill="#fff" d="M7.297 12.398h2.021v7.391a5 5 0 0 1-.376.118q-.258.06-.535.06-.516 0-.813-.296-.297-.315-.297-.806zm2.021 3.066H7.297v-6.37q0-.49.297-.785.298-.315.813-.315.277 0 .535.059.277.06.376.118zm-.911-.806v-1.651h5.965q.08.118.14.334.078.197.078.452 0 .414-.198.65-.198.215-.555.215zm0 5.308v-1.67h6.659q.08.118.139.334.08.196.08.471 0 .413-.2.65-.177.215-.554.215zm0-10.301V7.994h6.56a1.6 1.6 0 0 1 .159.334q.078.216.079.452 0 .413-.198.65-.199.234-.555.235zm21.75-.04h-.08q-.277.768-.634 1.79t-.753 2.123q-.377 1.08-.714 2.064l-.178.747-.277.865q-.159.492-.337 1.022-.159.512-.318.983-.158.452-.257.747a1.4 1.4 0 0 1-.357.118q-.178.04-.456.04-.475 0-.793-.217-.297-.216-.297-.629 0-.215.06-.413.079-.216.158-.471.218-.65.555-1.612.338-.984.753-2.124a624 624 0 0 1 1.685-4.56q.416-1.082.753-1.907.198-.099.595-.197a3 3 0 0 1 .832-.118q.535 0 .991.157.456.158.595.531.435 1.101.95 2.536.516 1.416 1.032 2.949.534 1.533 1.01 2.988t.853 2.634a1.1 1.1 0 0 1-.456.315 1.6 1.6 0 0 1-.635.118q-.535 0-.772-.197-.239-.196-.377-.668l-.951-2.89-.218-.885a142 142 0 0 0-.734-2.201 73 73 0 0 0-.693-2.045zm-3.31 7.294.733-1.632h5.252l.337 1.632zm21.807 1.632q1.228 0 1.843-.53a1.69 1.69 0 0 0 .634-1.357q0-.708-.495-1.16-.476-.473-1.467-.747l-1.506-.452a7.4 7.4 0 0 1-1.586-.708 3.06 3.06 0 0 1-1.05-1.042q-.357-.63-.357-1.514 0-1.533 1.15-2.418 1.149-.904 3.111-.904 1.09 0 1.942.236.853.215 1.348.59.495.373.496.825 0 .315-.179.57a1.4 1.4 0 0 1-.396.393q-.476-.374-1.308-.648a5.5 5.5 0 0 0-1.764-.276q-1.09 0-1.705.453-.614.432-.614 1.18 0 .608.436.982.435.374 1.387.649l1.17.354q1.625.471 2.556 1.317.932.845.932 2.34 0 1.572-1.19 2.555-1.188.983-3.369.983-1.209 0-2.14-.275-.911-.255-1.427-.669-.515-.433-.515-.904 0-.393.237-.649.239-.274.536-.413.476.433 1.308.846.832.393 1.982.393m19.21-2.752h-1.803q-.555-.806-1.17-1.73-.594-.925-1.189-1.888-.575-.962-1.11-1.887a62 62 0 0 1-.911-1.69q.12-.256.396-.472.277-.236.694-.236.475 0 .753.236.278.216.535.727l.496.845q.297.512.614 1.12l.674 1.18q.338.59.614 1.082.278.471.456.786h.08q.633-1.08 1.13-2.025.515-.943.99-1.867a125 125 0 0 0 .951-1.888q.18-.098.417-.137.238-.06.436-.06.456 0 .713.237.258.215.258.629 0 .196-.278.786-.257.57-.773 1.474-.515.905-1.268 2.124-.734 1.2-1.704 2.654m-1.922-.865h2.022v4.973q-.12.04-.397.099-.257.059-.535.059-.574 0-.832-.217-.258-.236-.258-.727z"/></g><path fill="#fff" d="M7.52 40.181A5.8 5.8 0 0 1 4.61 41q-2.087 0-3.378-1.368Q.001 38.308 0 36.361q0-1.606.886-2.84 1.275-1.74 3.678-1.74.315 0 .63.03 1.41.15 2.267.803 0-.357.03-.535.075-.224.42-.224l.045 2.78h-.39q-.72-2.407-2.912-2.437-.78 0-1.412.386-1.56.951-1.56 3.791 0 1.07.224 1.918.6 2.29 2.688 2.29 2.265-.015 3.017-2.498H8v2.84q-.18 0-.27-.03-.21-.09-.21-.714M13.93 31.781q1.562 0 2.763.877 1.725 1.28 1.726 3.732 0 2.082-1.41 3.405-1.307 1.204-3.123 1.204a4.53 4.53 0 0 1-2.852-.966q-1.667-1.324-1.667-3.702 0-2.052 1.411-3.36 1.321-1.19 3.153-1.19m0 8.802q.36 0 .691-.075 2.117-.535 2.117-4.177-.015-4.104-2.852-4.133-.21 0-.436.03-2.415.311-2.416 4.162 0 .268.014.535.18 3.658 2.883 3.658M30.942 31.93v.386H29.74v8.148h.81q.075 0 .15.014.24.045.24.372h-3.767v-.386h1.2v-7.152l-3.407 7.627h-.315l-3.273-6.72v6.245h.811q.075 0 .15.014.24.045.24.372h-3.002v-.386h1.201v-8.148h-1.2v-.386h2.25l3.423 7.091 3.123-7.091zM43.083 31.93v.386H41.88v8.148h.811q.075 0 .15.014.24.045.24.372h-3.767v-.386h1.2v-7.152l-3.407 7.627h-.316l-3.272-6.72v6.245h.81q.075 0 .15.014.24.045.24.372H31.72v-.386h1.2v-8.148h-1.2v-.386h2.251l3.423 7.091 3.122-7.091zM51.131 34.635h-.33l-.24-.758q0-.03-.015-.06-.465-1.5-1.622-1.5h-2.266v3.716h3.062v.431h-3.062v4h2.266q.226 0 .436-.06.81-.224 1.2-1.501l.24-.759h.331l-.075 2.706h-7.04v-.386h1.2v-8.148h-1.2v-.386h7.04zM56.25 40.85h-3.844v-.386h1.201v-8.148h-1.2v-.386h4.563q1.17 0 1.981.535.975.669.976 1.784 0 .446-.18.877-.51 1.13-1.952 1.502l2.402 3.836h.496q.09 0 .165.014.195.03.195.372h-2.342l-2.372-4.088h-1.29v3.702h1.2zm.18-8.534h-1.382v4.014h1.441q.646 0 1.111-.371.75-.58.75-1.68 0-.476-.18-.907-.48-1.056-1.74-1.056M69.263 40.181a5.8 5.8 0 0 1-2.912.818q-2.087 0-3.378-1.368-1.23-1.323-1.23-3.27 0-1.606.885-2.84 1.275-1.74 3.678-1.74.315 0 .63.03 1.41.15 2.267.803 0-.357.03-.535.075-.224.42-.224l.045 2.78h-.39q-.72-2.407-2.912-2.437-.78 0-1.411.386-1.562.951-1.562 3.791 0 1.07.226 1.918.6 2.29 2.687 2.29 2.267-.015 3.017-2.498h.39v2.84q-.18 0-.27-.03-.21-.09-.21-.714M77.998 34.635h-.33l-.24-.758q0-.03-.015-.06-.465-1.5-1.621-1.5h-2.267v3.716h3.062v.431h-3.062v4h2.267q.225 0 .435-.06.81-.224 1.201-1.501l.24-.759h.33l-.075 2.706h-7.04v-.386h1.2v-8.148h-1.2v-.386h7.04z"/></g><defs><clipPath id="a"><path fill="#fff" d="M0 0h78v41H0z"/></clipPath></defs></svg>