<svg xmlns="http://www.w3.org/2000/svg" viewBox="0 0 473.76 304.74"><defs><style>.cls-1{fill:#3f494b;}.cls-2{fill:#14b7a0;}</style></defs><g id="Layer_2" data-name="Layer 2"><g id="Layer_1-2" data-name="Layer 1"><path class="cls-1" d="M149.58,38.62l7-7.17c13.59-12,28.62-21.57,46.16-26.77a113.57,113.57,0,0,1,55-2.4c16.55,3.24,31,10.9,44.82,19.89,4.25,2.76,7.27,7.4,12,9.76a1.41,1.41,0,0,0,1.09,1.71l-.16-.07q3.5,4,7,8l0,0a2.89,2.89,0,0,0,2.13,2,1.35,1.35,0,0,0,.18.81c-.13.67.24,1,.8,1.19l-.07-.07c.63,1.21,1,2.6,2.25,3.38a.33.33,0,0,0,.31.43C333,57,336.82,65.22,340.49,73.52v0l5.07,18.87.23,2q.53,4.1,1,8.19c.05.89.09,1.77.13,2.66.27,16.45-4.42,31.72-11.54,46.27-4.42,9.05-9.6,17.72-14.44,26.56-7.54,10.07-14.91,20.26-22.66,30.17q-9.19,11.76-19.13,22.92c-9.39,10.56-19.33,8.93-25.45-3.87-.13-.27-.49-.43-.73-.64,1.4-.47.79-1.38.48-2.23,1.13-.79,1.09-2,1.09-3.16.67-1.31,1.35-2.62,2-3.94a.41.41,0,0,0,.36-.55,12.57,12.57,0,0,0,3.86-4.43h0l.91-1c.4-.51.81-1,1.21-1.51a4.05,4.05,0,0,0,2-2.38l0,.06c1.38-1.28,2.91-2.42,3.69-4.23l.11-.23a.57.57,0,0,0,.47-.69l1.74-1.59,3.3-4.27.65-.88a3.17,3.17,0,0,0,1.86-2.28c4.83-4.64,7.79-10.73,12.1-15.77.86-1.08,1.73-2.15,2.6-3.23l2.5-4.67.13-.13L303.88,155a4.08,4.08,0,0,0,1.65-2.63,2.54,2.54,0,0,0,1.32-2.48A6.23,6.23,0,0,0,309,146.3a.44.44,0,0,0,.39-.6c2.37-3.9,4.71-7.82,5.72-12.35l.54-2a8.5,8.5,0,0,0,2.12-5c1.13-1.63,1.14-3.49,1.07-5.36,4.5-13.7,1.29-26.65-3.8-39.43l-.63-2.19a10.66,10.66,0,0,0-2.54-5.55c-7.65-16.84-20-29.24-36.19-37.79-40.55-21.37-89.49-8.76-113.35,29.83-12.81,20.71-18,43.07-8.12,66.65,7.14,17,17.13,32.45,28.28,47.22,8,10.57,16.38,20.79,25,30.83,10.61,12.4,20.77,25.23,32.42,36.68,12.55,12.33,26.07,23.28,43.34,28.49,17.89,5.4,35.21,3.57,51.88-4.41,20.16-9.64,36.47-24.21,50.85-41.07,5.38-6.31,10.43-12.91,15.65-19.37,3.12-3.84,2.72-5.11-2.06-6.22-14.57-3.38-29.16-6.67-43.7-10.17-5.56-1.33-4.7-1.16-2.39-6.24,4.81-10.6,12.77-13,23.6-12.54,14.26.61,28.6-.47,42.89-.27,5.91.08,9.49-2.18,12.52-7,5.65-9,11.62-17.83,17.71-26.55,6.3-9,17.51-8.63,22.28.61,2.11,4.08,1.56,8.1-.86,11.84-6.41,9.9-12.6,20-19.49,29.52-2.56,3.54-2.77,6.68-1.41,10.14q10.35,26.19,21,52.25c.66,1.64,1.37,3.15.37,4.7-2.78,4.33-5.56,8.67-8.6,12.82-1.46,2-3.06,1.91-4.71-.41C449.59,250.51,440.28,237.74,431,225c-3.33-4.58-4.05-4.5-7.44,0-15.24,20-31.39,39.21-51.85,54.28-22.46,16.52-46.87,27.22-75.43,25.17-22.74-1.64-41.93-11.48-59.41-25.72-14.13-11.51-25.7-25.28-37.7-38.79-12.78-14.36-26.24-28.11-37.51-43.77C153.26,184.45,145,172.73,138.32,160c-.61-1.15-1-2.41-1.52-3.63-1.49-3.76-3-7.51-5.48-10.77v-.16c0-.79-.5-1.14-1.16-1.36-.21-4.14-3.26-7.36-3.68-11.44,0-1-.12-1.81-1.23-2.08.21-.4.69-.88.6-1.21-2.81-10.44-2.85-21.07-2.21-31.74a3.22,3.22,0,0,0,.65-3.22c1.38-3.81,1.75-7.82,2.34-11.78a3.88,3.88,0,0,0,1.13-3.06c.58-2,1.17-4,1.75-6a3.76,3.76,0,0,0,1.38-3.2,3.87,3.87,0,0,0,.91-3c1.7-1.24,2.19-3.08,2.45-5l1.87-3.51c.27-.5.53-1,.79-1.5s.28-.8.43-1.21a6.32,6.32,0,0,0,2.38-3.55c1.4-1.93,3.12-3.65,3.83-6a2.94,2.94,0,0,0,1.65-2.17A17.54,17.54,0,0,0,149.58,38.62Z"/><path class="cls-2" d="M1.66,154.22c-3-8.72-2-12.89,3.71-17.69,2.72-2.28,5.85-1.88,8.88-2.37,8.8.58,10.69,8.61,14.49,14.15,5.68,8.27,10.39,17.21,15.53,25.85,7.38,12.4,15.12,24.57,23.67,36.18,10.22,13.88,21.35,27,34.19,38.56,9.7,8.71,20,16.76,32,22.18,19.36,8.79,39.12,11.05,59.24,2.22,5-2.2,11-.51,15.42,4.09l1.13.89.74,1.28-.08.42.35.27.05.12,1,3,0,3-2.08,6a31.89,31.89,0,0,1-12.23,7.14A146.31,146.31,0,0,1,176,304.56l-2,.08a109.83,109.83,0,0,1-33.8-3.76c-3.28-.91-6.48-2.11-9.7-3.25a54.81,54.81,0,0,1-9.16-3.73c-2.82-1.63-5.26-3.7-8.24-5.1a78.44,78.44,0,0,1-8.91-4.41,100.5,100.5,0,0,1-8.44-6.25c-2.3-1.84-4.55-3.74-6.78-5.67q-2.2-1.92-4.38-3.85-6.62-5.82-12.68-12.23-3-3.15-5.86-6.42-1.44-1.64-2.84-3.29c-.46-.55-.92-1.09-1.37-1.64a2.79,2.79,0,0,1-.56-.73c-.11-.31,0-.59-.24-.89a3,3,0,0,0-.58-.55,14.08,14.08,0,0,1-1.55-1.63,6.06,6.06,0,0,1-.65-.86c-.22-.37-.37-.79-.57-1.17A6,6,0,0,0,55.45,237l.07.15a5.07,5.07,0,0,0-.37-1.14c0,.07.19.25.24.31l.28.36.54.71c.88,1.16,1.78,2.32,2.66,3.49a33.42,33.42,0,0,1,2.41,3.38s.14.25.08.24c-3.84-4.59-14.59-18.46-18-23.34q-3.19-4.53-6.32-9.1l-2.45-3.63c-.44-.66-.83-1.36-1.28-2a19.7,19.7,0,0,1-1.17-1.7,19.24,19.24,0,0,1-.84-1.92,12.39,12.39,0,0,0-1.32-2.25,34.43,34.43,0,0,1-1.63-3.13c-.31-.55-.65-1.08-1-1.63a66.55,66.55,0,0,0-4.1-6.25,24.08,24.08,0,0,1-1.85-2.44c-.51-.92-1-1.86-1.57-2.78-1.19-2-2.43-4-3.58-6l-.91-1.29C11.34,169.12,6.44,161.7,1.66,154.22Z"/><polygon class="cls-2" points="55.94 237.55 60.76 243.68 61.45 244.44 61.73 243.84 59.98 240.99 57.23 237.69 55.94 237.55"/><path class="cls-2" d="M271.31,105.89c-.64,20.67-17.41,36.09-38.44,35.37-19.23-.67-34.77-17.56-34.13-37.12.65-20,17.47-35.22,38.21-34.46C256.31,70.38,271.91,86.81,271.31,105.89Z"/></g></g></svg>