<svg xmlns="http://www.w3.org/2000/svg" viewBox="0 0 64 64" fill-rule="evenodd" xmlns:v="https://vecta.io/nano"><path d="m26.63,14.49c2.06-2.15,4.94-3.48,8.12-3.48,4.22,0,7.91,2.36,9.87,5.85,1.76-.78,3.66-1.19,5.58-1.19,7.62,0,13.8,6.23,13.8,13.92s-6.18,13.92-13.8,13.92c-.93,0-1.84-.09-2.72-.27-1.73,3.08-5.02,5.16-8.8,5.16-1.58,0-3.08-.36-4.41-1.02-1.75,4.12-5.84,7.01-10.59,7.01s-9.18-3.14-10.8-7.53c-.72.15-1.46.23-2.2.23C4.78,47.1,0,42.26,0,36.3c0-3.84,2.02-7.4,5.34-9.35-.68-1.56-1.02-3.24-1.02-4.94,0-6.86,5.57-12.41,12.43-12.41,3.88,0,7.53,1.8,9.88,4.89" fill="#00a1e0"/><path d="M9.27 32.83l.26-.72c.04-.12.13-.08.17-.06l.22.14c.76.48 1.47.49 1.69.49.57 0 .93-.3.93-.71v-.02c0-.44-.55-.61-1.18-.8l-.14-.04c-.87-.25-1.79-.6-1.79-1.7v-.02c0-1.04.84-1.77 2.04-1.77h.13c.71 0 1.39.2 1.88.5.04.03.09.08.06.15l-.27.72c-.05.12-.17.04-.17.04-.52-.27-1.09-.41-1.67-.43-.51 0-.84.27-.84.64v.02c0 .43.56.61 1.21.82l.11.03c.86.27 1.78.65 1.78 1.69v.02c0 1.12-.82 1.82-2.13 1.82-.64 0-1.26-.1-1.91-.45l-.37-.22c-.01-.02-.07-.04-.03-.14h0zm19.22 0l.26-.72c.04-.12.15-.07.17-.06l.22.14c.76.48 1.47.49 1.69.49.57 0 .92-.3.92-.71v-.02c0-.44-.55-.61-1.18-.8l-.14-.04c-.87-.25-1.79-.6-1.79-1.7v-.02c0-1.04.84-1.77 2.04-1.77h.13c.71 0 1.39.2 1.88.5.04.03.09.08.06.15l-.27.72c-.05.12-.17.04-.17.04-.52-.27-1.09-.42-1.67-.43-.51 0-.84.27-.84.64v.02c0 .43.56.61 1.21.82l.11.03c.86.27 1.78.65 1.78 1.69v.02c0 1.12-.82 1.82-2.13 1.82-.65 0-1.26-.1-1.91-.45l-.37-.22c-.01-.02-.07-.04-.03-.14zm14.22-3.38c.11.36.16.76.16 1.18s-.05.82-.16 1.18a2.63 2.63 0 0 1-.5.95c-.23.27-.52.49-.84.63-.34.15-.73.23-1.17.23s-.84-.08-1.17-.23-.61-.36-.84-.63a2.63 2.63 0 0 1-.5-.95c-.11-.38-.16-.78-.16-1.18 0-.42.05-.82.16-1.18s.28-.68.5-.95c.23-.27.52-.49.84-.64.34-.16.73-.24 1.17-.24s.84.08 1.17.24a2.44 2.44 0 0 1 .84.64c.22.27.39.59.5.95zm-1.09 1.18c0-.63-.12-1.13-.35-1.48s-.58-.52-1.07-.52-.83.17-1.06.52-.35.85-.35 1.48.12 1.14.35 1.49.57.52 1.06.52.84-.17 1.07-.52.35-.86.35-1.49zm10.09 1.84l.27.74c.03.09-.04.13-.04.13a4.56 4.56 0 0 1-1.55.28c-.95 0-1.68-.27-2.16-.81s-.73-1.27-.73-2.18a3.74 3.74 0 0 1 .18-1.18c.12-.36.3-.68.53-.95a2.66 2.66 0 0 1 .88-.64c.35-.16.76-.23 1.22-.23.31 0 .59.02.82.05a4 4 0 0 1 .73.19c.03 0 .1.04.07.13l-.27.75c-.04.11-.13.08-.13.08-.36-.11-.71-.17-1.16-.17-.54 0-.95.18-1.22.53-.27.36-.42.82-.42 1.44 0 .68.17 1.19.47 1.5s.72.47 1.25.47c.21 0 .42-.01.6-.04a2.15 2.15 0 0 0 .51-.15s.1-.04.14.07zm5.61-3.22c.24.84.11 1.56.11 1.6 0 .1-.11.1-.11.1h-3.71c.02.56.16.96.43 1.23s.69.44 1.27.44c.88 0 1.26-.17 1.52-.27 0 0 .1-.04.14.06l.24.68c.05.11 0 .15-.03.18-.23.13-.8.37-1.87.37-.52 0-.97-.07-1.35-.22-.35-.13-.67-.34-.93-.62a2.46 2.46 0 0 1-.54-.94 4.26 4.26 0 0 1-.17-1.18c0-.42.05-.82.16-1.18a2.74 2.74 0 0 1 .5-.96 2.36 2.36 0 0 1 .85-.65c.34-.16.76-.24 1.22-.24a2.67 2.67 0 0 1 1.06.22c.23.1.47.28.71.54a2.28 2.28 0 0 1 .47.87h0zm-3.69.77h2.65c-.03-.34-.09-.65-.25-.87-.23-.35-.55-.54-1.04-.54s-.83.19-1.06.54c-.15.23-.25.52-.3.87h0zm-26.02-.77c.24.84.12 1.56.11 1.6 0 .1-.11.1-.11.1H23.9c.02.56.16.96.43 1.23s.69.44 1.27.44c.88 0 1.26-.17 1.52-.27 0 0 .1-.04.14.06l.24.68c.05.11 0 .15-.03.18-.23.13-.8.37-1.87.37-.52 0-.97-.07-1.35-.22-.35-.13-.67-.34-.93-.62a2.46 2.46 0 0 1-.54-.94c-.12-.38-.17-.78-.17-1.18 0-.42.05-.82.16-1.18.1-.35.27-.68.5-.96a2.36 2.36 0 0 1 .85-.65c.34-.16.76-.24 1.22-.24a2.55 2.55 0 0 1 1.06.22c.23.1.47.28.7.54a2.28 2.28 0 0 1 .47.87zm-3.69.77h2.65c-.03-.34-.09-.65-.25-.87-.23-.35-.55-.54-1.04-.54s-.83.19-1.06.54c-.15.23-.25.52-.3.87h0zm-6.54-.18l.61.07v-.16c0-.49-.1-.73-.31-.88-.21-.16-.52-.24-.92-.24 0 0-.9-.01-1.62.38-.03.02-.06.03-.06.03s-.09.03-.12-.06l-.26-.71c-.04-.1.03-.15.03-.15.33-.26 1.14-.42 1.14-.42.33-.06.66-.09.99-.09.74 0 1.31.17 1.7.51s.59.89.59 1.64v3.39s0 .1-.08.12l-.26.07c-.12.03-.57.12-.94.18a7.08 7.08 0 0 1-1.13.09 4.22 4.22 0 0 1-.98-.1c-.27-.06-.53-.17-.76-.33a1.5 1.5 0 0 1-.48-.58 1.98 1.98 0 0 1-.17-.85 1.82 1.82 0 0 1 .2-.86c.13-.24.31-.45.54-.61s.5-.29.77-.36c.29-.08.6-.12.91-.12l.58.02h0zm-1.48 2.61s.33.26 1.09.22c.53-.03 1-.13 1-.13v-1.69s-.47-.08-1.01-.09c-.76 0-1.08.27-1.08.27-.22.16-.33.39-.33.72 0 .21.04.37.11.48.05.07.07.1.21.22zm31.4-4.52c-.03.1-.21.61-.28.78-.02.06-.06.11-.14.1 0 0-.21-.05-.41-.05a1.99 1.99 0 0 0-.5.07 1.1 1.1 0 0 0-.46.28c-.14.13-.25.31-.33.55-.08.23-.12.6-.12.97v2.76c0 .06-.05.11-.11.11h-.97c-.06 0-.11-.05-.11-.11h0v-5.53c0-.06.05-.11.11-.11h.95c.06 0 .11.05.11.11v.45c.14-.19.4-.36.63-.46s.49-.18.96-.15c.24.01.56.08.62.11.05.02.08.08.06.13zm-9.15-2.56s.1.04.07.13l-.28.78c-.02.06-.04.09-.16.06-.16-.05-.33-.08-.49-.08-.15 0-.28.02-.4.06s-.22.1-.31.19c-.12.11-.2.25-.26.4-.14.39-.19.81-.2.84h1.19c.1 0 .13.05.12.12l-.14.77c-.02.11-.12.11-.12.11h-1.22l-.84 4.73c-.07.42-.18.84-.33 1.25-.13.34-.27.59-.48.83-.19.21-.42.38-.69.48-.26.09-.57.14-.91.14-.16 0-.34 0-.54-.05l-.34-.1c-.05-.02-.08-.07-.06-.15.03-.07.24-.67.27-.75.04-.1.13-.06.13-.06.07.03.11.05.2.06.09.02.21.03.3.03a1.51 1.51 0 0 0 .44-.06c.15-.05.24-.14.34-.26.1-.13.18-.3.26-.53a5.53 5.53 0 0 0 .22-.91l.83-4.64h-.82c-.1 0-.13-.05-.12-.12l.14-.77c.02-.11.13-.11.13-.11h.84l.05-.25c.13-.74.38-1.31.75-1.68s.9-.56 1.57-.56c.19 0 .36.01.5.04l.37.09zm-16.57 8.02c0 .06-.04.11-.11.11h-.98c-.06 0-.11-.05-.11-.11v-7.92c0-.06.04-.11.1-.11h.98c.06 0 .11.05.11.11v7.92z" fill="#fff"/></svg>